<svg width="500" height="500" viewBox="0 0 500 500" fill="none" xmlns="http://www.w3.org/2000/svg">
<g clip-path="url(#clip0_111_4)">
<circle cx="250" cy="250" r="250" fill="black"/>
<rect x="96" y="288" width="309" height="212" fill="black"/>
<path d="M285.812 453.065V346.188C285.812 337.151 282.065 328.508 275.431 322.153C268.802 315.801 259.832 312.25 250.5 312.25C241.168 312.25 232.198 315.801 225.569 322.153C218.935 328.508 215.188 337.151 215.188 346.188V453.065L176.99 416.469L176.975 416.454L176.959 416.439C170.293 410.27 161.385 406.873 152.16 406.95C142.934 407.027 134.089 410.572 127.534 416.851C120.976 423.135 117.236 431.657 117.155 440.59C117.074 449.524 120.659 458.108 127.103 464.501L127.119 464.516L127.135 464.531L225.572 558.844L225.572 558.844C232.202 565.194 241.17 568.743 250.5 568.743C259.83 568.743 268.798 565.194 275.428 558.844L275.428 558.844L373.865 464.531L373.881 464.516L373.897 464.501C380.341 458.108 383.926 449.524 383.845 440.59C383.764 431.657 380.024 423.135 373.466 416.851C366.911 410.572 358.066 407.027 348.84 406.95C339.615 406.873 330.707 410.27 324.041 416.439L324.025 416.454L324.01 416.469L285.812 453.065ZM434.386 616.532C385.634 663.241 319.49 689.5 250.5 689.5C181.51 689.5 115.366 663.241 66.614 616.532C17.8656 569.827 -9.5 506.504 -9.5 440.5C-9.5 374.496 17.8656 311.173 66.614 264.468C115.366 217.759 181.51 191.5 250.5 191.5C319.49 191.5 385.634 217.759 434.386 264.468C483.134 311.173 510.5 374.496 510.5 440.5C510.5 506.504 483.134 569.827 434.386 616.532Z" fill="white" stroke="black" stroke-width="5"/>
<mask id="path-4-outside-1_111_4" maskUnits="userSpaceOnUse" x="44" y="70" width="417" height="243" fill="black">
<rect fill="white" x="44" y="70" width="417" height="243"/>
<path d="M163.013 233.982C164.152 233.982 165.177 233.698 166.089 233.128V217.576C173.836 212.335 184.66 208.063 198.56 204.759C212.573 201.455 226.188 199.803 239.404 199.803C245.443 205.955 250.456 215.184 254.443 227.488C258.545 239.679 260.71 250.73 260.938 260.643C258.659 265.2 254.785 270.099 249.316 275.34C243.962 280.581 237.467 285.423 229.834 289.866C210.921 301.032 189.217 306.614 164.722 306.614C129.631 306.614 102.002 296.417 81.8359 276.023C60.9863 255.402 50.5615 226.862 50.5615 190.403C50.5615 153.831 61.9548 125.12 84.7412 104.271C94.7673 94.9281 106.445 87.9212 119.775 83.25C133.105 78.4648 147.119 76.0723 161.816 76.0723C190.527 76.0723 214.054 83.0221 232.397 96.9219C250.741 110.822 259.912 127.968 259.912 148.362C259.912 163.743 255.184 175.136 245.728 182.542C236.271 189.834 223.454 193.479 207.275 193.479C198.389 193.479 189.445 191.315 180.444 186.985C171.444 182.542 166.089 178.383 164.38 174.51C164.38 165.167 164.551 157.819 164.893 152.464C164.665 152.35 164.266 152.293 163.696 152.293H162.5C160.791 152.293 159.424 152.806 158.398 153.831C157.487 154.743 156.632 156.736 155.835 159.812C155.151 162.889 154.81 171.263 154.81 184.935C154.81 217.633 157.544 233.982 163.013 233.982ZM441.748 217.405C441.748 225.608 442.66 232.216 444.482 237.229C446.305 242.243 449.495 246.173 454.053 249.021C454.167 249.591 454.224 250.674 454.224 252.269V255.345C454.224 271.523 449.325 284.113 439.526 293.113C430.868 301.089 420.158 305.076 407.397 305.076C398.739 305.076 390.82 303.025 383.643 298.924C376.465 294.822 371.338 288.898 368.262 281.15C364.388 281.15 362.451 283.03 362.451 286.79C362.451 289.98 364.445 293.569 368.433 297.557C361.027 302.57 349.862 305.076 334.937 305.076C313.859 305.076 296.997 299.38 284.351 287.986C271.818 276.479 265.552 260.472 265.552 239.964C265.552 219.342 272.217 203.392 285.547 192.112C297.738 181.972 313.517 176.902 332.886 176.902C339.494 176.902 345.874 177.358 352.026 178.27C356.128 179.067 358.35 179.523 358.691 179.637C359.033 178.497 359.204 177.529 359.204 176.731C359.204 173.769 356.698 171.775 351.685 170.75C346.672 169.725 340.12 169.212 332.031 169.212C314.827 169.212 300.13 172.687 287.939 179.637C282.357 170.18 279.565 158.217 279.565 143.748C279.565 135.545 280.591 129.45 282.642 125.462C290.845 121.702 301.27 118.398 313.916 115.55C326.562 112.588 339.893 111.106 353.906 111.106C382.845 111.106 404.72 117.43 419.531 130.076C434.342 142.723 441.748 160.667 441.748 183.909V217.405ZM353.052 225.779C348.267 225.779 345.874 227.944 345.874 232.273C345.874 236.375 348.665 238.426 354.248 238.426C358.122 238.426 360.97 237.514 362.793 235.691C364.616 233.755 365.527 230.451 365.527 225.779C365.527 225.779 361.369 225.779 353.052 225.779Z"/>
</mask>
<path d="M163.013 233.982C164.152 233.982 165.177 233.698 166.089 233.128V217.576C173.836 212.335 184.66 208.063 198.56 204.759C212.573 201.455 226.188 199.803 239.404 199.803C245.443 205.955 250.456 215.184 254.443 227.488C258.545 239.679 260.71 250.73 260.938 260.643C258.659 265.2 254.785 270.099 249.316 275.34C243.962 280.581 237.467 285.423 229.834 289.866C210.921 301.032 189.217 306.614 164.722 306.614C129.631 306.614 102.002 296.417 81.8359 276.023C60.9863 255.402 50.5615 226.862 50.5615 190.403C50.5615 153.831 61.9548 125.12 84.7412 104.271C94.7673 94.9281 106.445 87.9212 119.775 83.25C133.105 78.4648 147.119 76.0723 161.816 76.0723C190.527 76.0723 214.054 83.0221 232.397 96.9219C250.741 110.822 259.912 127.968 259.912 148.362C259.912 163.743 255.184 175.136 245.728 182.542C236.271 189.834 223.454 193.479 207.275 193.479C198.389 193.479 189.445 191.315 180.444 186.985C171.444 182.542 166.089 178.383 164.38 174.51C164.38 165.167 164.551 157.819 164.893 152.464C164.665 152.35 164.266 152.293 163.696 152.293H162.5C160.791 152.293 159.424 152.806 158.398 153.831C157.487 154.743 156.632 156.736 155.835 159.812C155.151 162.889 154.81 171.263 154.81 184.935C154.81 217.633 157.544 233.982 163.013 233.982ZM441.748 217.405C441.748 225.608 442.66 232.216 444.482 237.229C446.305 242.243 449.495 246.173 454.053 249.021C454.167 249.591 454.224 250.674 454.224 252.269V255.345C454.224 271.523 449.325 284.113 439.526 293.113C430.868 301.089 420.158 305.076 407.397 305.076C398.739 305.076 390.82 303.025 383.643 298.924C376.465 294.822 371.338 288.898 368.262 281.15C364.388 281.15 362.451 283.03 362.451 286.79C362.451 289.98 364.445 293.569 368.433 297.557C361.027 302.57 349.862 305.076 334.937 305.076C313.859 305.076 296.997 299.38 284.351 287.986C271.818 276.479 265.552 260.472 265.552 239.964C265.552 219.342 272.217 203.392 285.547 192.112C297.738 181.972 313.517 176.902 332.886 176.902C339.494 176.902 345.874 177.358 352.026 178.27C356.128 179.067 358.35 179.523 358.691 179.637C359.033 178.497 359.204 177.529 359.204 176.731C359.204 173.769 356.698 171.775 351.685 170.75C346.672 169.725 340.12 169.212 332.031 169.212C314.827 169.212 300.13 172.687 287.939 179.637C282.357 170.18 279.565 158.217 279.565 143.748C279.565 135.545 280.591 129.45 282.642 125.462C290.845 121.702 301.27 118.398 313.916 115.55C326.562 112.588 339.893 111.106 353.906 111.106C382.845 111.106 404.72 117.43 419.531 130.076C434.342 142.723 441.748 160.667 441.748 183.909V217.405ZM353.052 225.779C348.267 225.779 345.874 227.944 345.874 232.273C345.874 236.375 348.665 238.426 354.248 238.426C358.122 238.426 360.97 237.514 362.793 235.691C364.616 233.755 365.527 230.451 365.527 225.779C365.527 225.779 361.369 225.779 353.052 225.779Z" fill="#8B5CF6"/>
<path d="M166.089 233.128L169.269 238.216L172.089 236.453V233.128H166.089ZM166.089 217.576L162.727 212.606L160.089 214.391V217.576H166.089ZM198.56 204.759L197.183 198.919L197.172 198.921L198.56 204.759ZM239.404 199.803L243.686 195.6L241.922 193.803H239.404V199.803ZM254.443 227.488L248.736 229.338L248.746 229.37L248.757 229.402L254.443 227.488ZM260.938 260.643L266.304 263.326L266.97 261.994L266.936 260.505L260.938 260.643ZM249.316 275.34L245.165 271.008L245.142 271.03L245.12 271.052L249.316 275.34ZM229.834 289.866L226.816 284.681L226.8 284.69L226.784 284.699L229.834 289.866ZM81.8359 276.023L86.1023 271.805L86.0789 271.781L86.0552 271.758L81.8359 276.023ZM84.7412 104.271L88.7915 108.697L88.8116 108.679L88.8316 108.66L84.7412 104.271ZM119.775 83.25L121.76 88.9124L121.781 88.9049L121.803 88.8972L119.775 83.25ZM232.397 96.9219L236.021 92.1398L232.397 96.9219ZM245.728 182.542L249.391 187.293L249.409 187.28L249.427 187.266L245.728 182.542ZM180.444 186.985L177.788 192.365L177.816 192.379L177.844 192.392L180.444 186.985ZM164.38 174.51H158.38V175.774L158.89 176.932L164.38 174.51ZM164.893 152.464L170.88 152.846L171.134 148.876L167.576 147.097L164.893 152.464ZM155.835 159.812L150.027 158.307L150.001 158.408L149.978 158.511L155.835 159.812ZM163.013 239.982C165.206 239.982 167.346 239.418 169.269 238.216L162.909 228.04C162.92 228.033 162.938 228.023 162.962 228.012C162.986 228.002 163.01 227.993 163.03 227.988C163.04 227.985 163.048 227.983 163.054 227.982C163.06 227.981 163.063 227.98 163.063 227.98C163.063 227.98 163.047 227.982 163.013 227.982V239.982ZM172.089 233.128V217.576H160.089V233.128H172.089ZM169.451 222.546C176.368 217.867 186.42 213.812 199.947 210.596L197.172 198.921C182.9 202.314 171.305 206.804 162.727 212.606L169.451 222.546ZM199.936 210.599C213.539 207.392 226.691 205.803 239.404 205.803V193.803C225.685 193.803 211.608 195.518 197.183 198.919L199.936 210.599ZM235.122 204.006C240.266 209.246 244.903 217.513 248.736 229.338L260.151 225.639C256.008 212.855 250.62 202.664 243.686 195.6L235.122 204.006ZM248.757 229.402C252.719 241.18 254.729 251.621 254.939 260.78L266.936 260.505C266.691 249.84 264.37 238.178 260.13 225.575L248.757 229.402ZM255.571 257.959C253.711 261.68 250.355 266.034 245.165 271.008L253.468 279.672C259.215 274.164 263.607 268.72 266.304 263.326L255.571 257.959ZM245.12 271.052C240.175 275.891 234.095 280.444 226.816 284.681L232.852 295.052C240.84 290.402 247.748 285.271 253.513 279.628L245.12 271.052ZM226.784 284.699C208.898 295.258 188.271 300.614 164.722 300.614V312.614C190.163 312.614 212.944 306.805 232.884 295.033L226.784 284.699ZM164.722 300.614C130.852 300.614 104.899 290.813 86.1023 271.805L77.5695 280.242C99.1054 302.021 128.409 312.614 164.722 312.614V300.614ZM86.0552 271.758C66.6087 252.524 56.5615 225.672 56.5615 190.403H44.5615C44.5615 228.051 55.364 258.28 77.6167 280.289L86.0552 271.758ZM56.5615 190.403C56.5615 155.177 67.4765 128.2 88.7915 108.697L80.6909 99.8439C56.433 122.04 44.5615 152.485 44.5615 190.403H56.5615ZM88.8316 108.66C98.2322 99.9004 109.187 93.3181 121.76 88.9124L117.791 77.5876C103.703 82.5244 91.3023 89.9557 80.6509 99.8809L88.8316 108.66ZM121.803 88.8972C134.458 84.3542 147.784 82.0723 161.816 82.0723V70.0723C146.455 70.0723 131.753 72.5755 117.748 77.6028L121.803 88.8972ZM161.816 82.0723C189.548 82.0723 211.709 88.7726 228.774 101.704L236.021 92.1398C216.4 77.2717 191.506 70.0723 161.816 70.0723V82.0723ZM228.774 101.704C245.84 114.636 253.912 130.106 253.912 148.362H265.912C265.912 125.831 255.641 107.007 236.021 92.1398L228.774 101.704ZM253.912 148.362C253.912 162.464 249.639 171.858 242.028 177.818L249.427 187.266C260.729 178.415 265.912 165.023 265.912 148.362H253.912ZM242.064 177.791C233.975 184.028 222.594 187.479 207.275 187.479V199.479C224.313 199.479 238.568 195.639 249.391 187.293L242.064 177.791ZM207.275 187.479C199.395 187.479 191.336 185.566 183.045 181.578L177.844 192.392C187.554 197.063 197.382 199.479 207.275 199.479V187.479ZM183.1 181.605C178.807 179.486 175.604 177.539 173.358 175.795C171.042 173.997 170.15 172.725 169.869 172.088L158.89 176.932C160.318 180.168 162.958 182.912 165.998 185.273C169.106 187.687 173.081 190.042 177.788 192.365L183.1 181.605ZM170.38 174.51C170.38 165.216 170.551 158.014 170.88 152.846L158.905 152.082C158.551 157.623 158.38 165.118 158.38 174.51H170.38ZM167.576 147.097C165.98 146.3 164.319 146.293 163.696 146.293V158.293C163.803 158.293 163.744 158.3 163.574 158.275C163.483 158.262 163.322 158.235 163.111 158.178C162.906 158.122 162.587 158.019 162.209 157.83L167.576 147.097ZM163.696 146.293H162.5V158.293H163.696V146.293ZM162.5 146.293C159.505 146.293 156.506 147.239 154.156 149.588L162.641 158.074C162.6 158.114 162.545 158.161 162.476 158.205C162.408 158.249 162.346 158.278 162.3 158.295C162.205 158.331 162.245 158.293 162.5 158.293V146.293ZM154.156 149.588C152.914 150.83 152.11 152.361 151.559 153.646C150.972 155.017 150.47 156.597 150.027 158.307L161.643 161.318C161.997 159.952 162.322 158.997 162.589 158.374C162.72 158.068 162.812 157.9 162.853 157.834C162.898 157.759 162.84 157.875 162.641 158.074L154.156 149.588ZM149.978 158.511C149.504 160.642 149.24 164.011 149.071 168.155C148.895 172.458 148.81 178.061 148.81 184.935H160.81C160.81 178.136 160.895 172.716 161.061 168.645C161.234 164.416 161.482 162.06 161.692 161.114L149.978 158.511ZM148.81 184.935C148.81 201.362 149.491 214.029 150.943 222.71C151.659 226.992 152.632 230.759 154.061 233.608C155.377 236.23 158.114 239.982 163.013 239.982V227.982C165.177 227.982 165.522 229.692 164.787 228.226C164.165 226.988 163.429 224.624 162.778 220.731C161.496 213.063 160.81 201.206 160.81 184.935H148.81ZM454.053 249.021L459.936 247.845L459.428 245.306L457.233 243.933L454.053 249.021ZM439.526 293.113L435.467 288.695L435.462 288.7L439.526 293.113ZM368.262 281.15L373.838 278.936L372.335 275.15H368.262V281.15ZM368.433 297.557L371.796 302.525L377.813 298.452L372.675 293.314L368.433 297.557ZM284.351 287.986L280.293 292.406L280.313 292.425L280.335 292.444L284.351 287.986ZM285.547 192.112L281.71 187.499L281.691 187.516L281.671 187.532L285.547 192.112ZM352.026 178.27L353.172 172.38L353.039 172.354L352.906 172.334L352.026 178.27ZM358.691 179.637L356.794 185.329L362.661 187.285L364.438 181.361L358.691 179.637ZM351.685 170.75L350.482 176.628L351.685 170.75ZM287.939 179.637L282.773 182.687L285.777 187.776L290.911 184.849L287.939 179.637ZM282.642 125.462L280.142 120.008L278.255 120.872L277.306 122.718L282.642 125.462ZM313.916 115.55L315.234 121.403L315.259 121.398L315.284 121.392L313.916 115.55ZM362.793 235.691L367.036 239.934L367.1 239.87L367.162 239.804L362.793 235.691ZM365.527 225.779H371.527V219.779H365.527V225.779ZM435.748 217.405C435.748 225.973 436.689 233.355 438.844 239.28L450.121 235.179C448.63 231.078 447.748 225.244 447.748 217.405H435.748ZM438.844 239.28C441.128 245.562 445.189 250.557 450.873 254.109L457.233 243.933C453.802 241.789 451.483 238.923 450.121 235.179L438.844 239.28ZM448.169 250.198C448.14 250.053 448.165 250.122 448.189 250.576C448.21 250.976 448.224 251.532 448.224 252.269H460.224C460.224 250.735 460.183 249.081 459.936 247.845L448.169 250.198ZM448.224 252.269V255.345H460.224V252.269H448.224ZM448.224 255.345C448.224 270.235 443.767 281.071 435.467 288.695L443.585 297.532C454.882 287.154 460.224 272.811 460.224 255.345H448.224ZM435.462 288.7C428.008 295.565 418.79 299.076 407.397 299.076V311.076C421.526 311.076 433.727 306.612 443.591 297.527L435.462 288.7ZM407.397 299.076C399.731 299.076 392.847 297.273 386.619 293.714L380.666 304.133C388.794 308.778 397.746 311.076 407.397 311.076V299.076ZM386.619 293.714C380.633 290.294 376.417 285.431 373.838 278.936L362.685 283.365C366.259 292.365 372.296 299.351 380.666 304.133L386.619 293.714ZM368.262 275.15C365.444 275.15 362.221 275.832 359.725 278.255C357.196 280.71 356.451 283.939 356.451 286.79H368.451C368.451 286.348 368.51 286.21 368.489 286.272C368.476 286.308 368.443 286.394 368.372 286.508C368.3 286.625 368.203 286.749 368.083 286.866C367.962 286.983 367.842 287.069 367.74 287.128C367.641 287.186 367.576 287.209 367.567 287.212C367.561 287.213 367.76 287.15 368.262 287.15V275.15ZM356.451 286.79C356.451 292.423 359.873 297.482 364.19 301.799L372.675 293.314C369.017 289.656 368.451 287.537 368.451 286.79H356.451ZM365.069 292.588C359.121 296.614 349.384 299.076 334.937 299.076V311.076C350.339 311.076 362.933 308.525 371.796 302.525L365.069 292.588ZM334.937 299.076C314.974 299.076 299.665 293.707 288.367 283.529L280.335 292.444C294.329 305.052 312.744 311.076 334.937 311.076V299.076ZM288.409 283.567C277.364 273.426 271.552 259.165 271.552 239.964H259.552C259.552 261.778 266.272 279.532 280.293 292.406L288.409 283.567ZM271.552 239.964C271.552 220.754 277.688 206.622 289.423 196.693L281.671 187.532C266.746 200.161 259.552 217.93 259.552 239.964H271.552ZM289.384 196.725C300.273 187.668 314.597 182.902 332.886 182.902V170.902C312.437 170.902 295.202 176.277 281.71 187.499L289.384 196.725ZM332.886 182.902C339.218 182.902 345.303 183.339 351.147 184.205L352.906 172.334C346.445 171.377 339.77 170.902 332.886 170.902V182.902ZM350.881 184.159C352.925 184.557 354.483 184.865 355.563 185.087C356.106 185.198 356.507 185.283 356.781 185.344C357.195 185.436 357.064 185.419 356.794 185.329L360.589 173.945C359.981 173.742 358.856 173.513 357.974 173.332C356.833 173.098 355.229 172.78 353.172 172.38L350.881 184.159ZM364.438 181.361C364.874 179.908 365.204 178.324 365.204 176.731H353.204C353.204 176.711 353.205 176.797 353.167 177.013C353.13 177.226 353.062 177.522 352.944 177.913L364.438 181.361ZM365.204 176.731C365.204 173.258 363.61 170.348 361.059 168.319C358.753 166.484 355.825 165.473 352.887 164.872L350.482 176.628C351.47 176.83 352.207 177.055 352.739 177.269C353.275 177.484 353.519 177.654 353.589 177.71C353.642 177.752 353.512 177.661 353.38 177.399C353.241 177.124 353.204 176.867 353.204 176.731H365.204ZM352.887 164.872C347.319 163.733 340.321 163.212 332.031 163.212V175.212C339.92 175.212 346.024 175.716 350.482 176.628L352.887 164.872ZM332.031 163.212C314.019 163.212 298.248 166.854 284.968 174.424L290.911 184.849C302.013 178.52 315.636 175.212 332.031 175.212V163.212ZM293.106 176.586C288.216 168.303 285.565 157.476 285.565 143.748H273.565C273.565 158.959 276.498 172.058 282.773 182.687L293.106 176.586ZM285.565 143.748C285.565 135.832 286.591 130.903 287.977 128.206L277.306 122.718C274.591 127.997 273.565 135.258 273.565 143.748H285.565ZM285.142 130.916C292.841 127.387 302.834 124.196 315.234 121.403L312.598 109.696C299.705 112.6 288.848 116.017 280.142 120.008L285.142 130.916ZM315.284 121.392C327.449 118.542 340.317 117.106 353.906 117.106V105.106C339.468 105.106 325.676 106.633 312.548 109.708L315.284 121.392ZM353.906 117.106C382.09 117.106 402.331 123.279 415.635 134.639L423.427 125.513C407.109 111.58 383.6 105.106 353.906 105.106V117.106ZM415.635 134.639C428.851 145.924 435.748 162.049 435.748 183.909H447.748C447.748 159.285 439.834 139.522 423.427 125.513L415.635 134.639ZM435.748 183.909V217.405H447.748V183.909H435.748ZM353.052 219.779C349.874 219.779 346.371 220.485 343.643 222.954C340.801 225.525 339.874 229.02 339.874 232.273H351.874C351.874 231.728 351.951 231.511 351.953 231.506C351.953 231.506 351.952 231.507 351.952 231.509C351.951 231.51 351.95 231.513 351.949 231.516C351.946 231.522 351.942 231.531 351.936 231.542C351.925 231.565 351.908 231.596 351.884 231.632C351.833 231.708 351.768 231.785 351.694 231.852C351.535 231.996 351.46 231.985 351.644 231.93C351.849 231.868 352.289 231.779 353.052 231.779V219.779ZM339.874 232.273C339.874 235.835 341.186 239.35 344.415 241.723C347.299 243.842 350.899 244.426 354.248 244.426V232.426C353.2 232.426 352.478 232.328 352.012 232.213C351.55 232.1 351.447 231.999 351.52 232.052C351.629 232.132 351.774 232.294 351.861 232.486C351.933 232.644 351.874 232.623 351.874 232.273H339.874ZM354.248 244.426C358.923 244.426 363.631 243.339 367.036 239.934L358.55 231.449C358.309 231.69 357.32 232.426 354.248 232.426V244.426ZM367.162 239.804C370.583 236.169 371.527 230.921 371.527 225.779H359.527C359.527 229.98 358.648 231.341 358.424 231.579L367.162 239.804ZM365.527 225.779C365.527 219.779 365.527 219.779 365.527 219.779C365.527 219.779 365.527 219.779 365.527 219.779C365.527 219.779 365.527 219.779 365.527 219.779C365.527 219.779 365.527 219.779 365.527 219.779C365.526 219.779 365.526 219.779 365.526 219.779C365.526 219.779 365.526 219.779 365.526 219.779C365.525 219.779 365.525 219.779 365.525 219.779C365.525 219.779 365.525 219.779 365.524 219.779C365.524 219.779 365.524 219.779 365.523 219.779C365.523 219.779 365.523 219.779 365.523 219.779C365.522 219.779 365.522 219.779 365.522 219.779C365.521 219.779 365.521 219.779 365.52 219.779C365.52 219.779 365.52 219.779 365.519 219.779C365.519 219.779 365.518 219.779 365.518 219.779C365.518 219.779 365.517 219.779 365.517 219.779C365.516 219.779 365.516 219.779 365.515 219.779C365.515 219.779 365.514 219.779 365.514 219.779C365.513 219.779 365.512 219.779 365.512 219.779C365.511 219.779 365.511 219.779 365.51 219.779C365.51 219.779 365.509 219.779 365.508 219.779C365.508 219.779 365.507 219.779 365.506 219.779C365.506 219.779 365.505 219.779 365.504 219.779C365.504 219.779 365.503 219.779 365.502 219.779C365.501 219.779 365.501 219.779 365.5 219.779C365.499 219.779 365.498 219.779 365.498 219.779C365.497 219.779 365.496 219.779 365.495 219.779C365.494 219.779 365.494 219.779 365.493 219.779C365.492 219.779 365.491 219.779 365.49 219.779C365.489 219.779 365.488 219.779 365.487 219.779C365.486 219.779 365.485 219.779 365.485 219.779C365.484 219.779 365.483 219.779 365.482 219.779C365.481 219.779 365.48 219.779 365.479 219.779C365.478 219.779 365.477 219.779 365.476 219.779C365.474 219.779 365.473 219.779 365.472 219.779C365.471 219.779 365.47 219.779 365.469 219.779C365.468 219.779 365.467 219.779 365.466 219.779C365.465 219.779 365.463 219.779 365.462 219.779C365.461 219.779 365.46 219.779 365.459 219.779C365.457 219.779 365.456 219.779 365.455 219.779C365.454 219.779 365.452 219.779 365.451 219.779C365.45 219.779 365.449 219.779 365.447 219.779C365.446 219.779 365.445 219.779 365.443 219.779C365.442 219.779 365.441 219.779 365.439 219.779C365.438 219.779 365.437 219.779 365.435 219.779C365.434 219.779 365.432 219.779 365.431 219.779C365.43 219.779 365.428 219.779 365.427 219.779C365.425 219.779 365.424 219.779 365.422 219.779C365.421 219.779 365.419 219.779 365.418 219.779C365.416 219.779 365.415 219.779 365.413 219.779C365.412 219.779 365.41 219.779 365.408 219.779C365.407 219.779 365.405 219.779 365.404 219.779C365.402 219.779 365.4 219.779 365.399 219.779C365.397 219.779 365.395 219.779 365.394 219.779C365.392 219.779 365.39 219.779 365.389 219.779C365.387 219.779 365.385 219.779 365.383 219.779C365.382 219.779 365.38 219.779 365.378 219.779C365.376 219.779 365.375 219.779 365.373 219.779C365.371 219.779 365.369 219.779 365.367 219.779C365.365 219.779 365.364 219.779 365.362 219.779C365.36 219.779 365.358 219.779 365.356 219.779C365.354 219.779 365.352 219.779 365.35 219.779C365.348 219.779 365.346 219.779 365.344 219.779C365.342 219.779 365.34 219.779 365.338 219.779C365.336 219.779 365.334 219.779 365.332 219.779C365.33 219.779 365.328 219.779 365.326 219.779C365.324 219.779 365.322 219.779 365.32 219.779C365.318 219.779 365.316 219.779 365.314 219.779C365.312 219.779 365.309 219.779 365.307 219.779C365.305 219.779 365.303 219.779 365.301 219.779C365.299 219.779 365.296 219.779 365.294 219.779C365.292 219.779 365.29 219.779 365.287 219.779C365.285 219.779 365.283 219.779 365.281 219.779C365.278 219.779 365.276 219.779 365.274 219.779C365.271 219.779 365.269 219.779 365.267 219.779C365.264 219.779 365.262 219.779 365.26 219.779C365.257 219.779 365.255 219.779 365.252 219.779C365.25 219.779 365.248 219.779 365.245 219.779C365.243 219.779 365.24 219.779 365.238 219.779C365.235 219.779 365.233 219.779 365.23 219.779C365.228 219.779 365.225 219.779 365.223 219.779C365.22 219.779 365.218 219.779 365.215 219.779C365.213 219.779 365.21 219.779 365.207 219.779C365.205 219.779 365.202 219.779 365.199 219.779C365.197 219.779 365.194 219.779 365.192 219.779C365.189 219.779 365.186 219.779 365.184 219.779C365.181 219.779 365.178 219.779 365.175 219.779C365.173 219.779 365.17 219.779 365.167 219.779C365.164 219.779 365.162 219.779 365.159 219.779C365.156 219.779 365.153 219.779 365.15 219.779C365.148 219.779 365.145 219.779 365.142 219.779C365.139 219.779 365.136 219.779 365.133 219.779C365.13 219.779 365.127 219.779 365.125 219.779C365.122 219.779 365.119 219.779 365.116 219.779C365.113 219.779 365.11 219.779 365.107 219.779C365.104 219.779 365.101 219.779 365.098 219.779C365.095 219.779 365.092 219.779 365.089 219.779C365.086 219.779 365.083 219.779 365.08 219.779C365.076 219.779 365.073 219.779 365.07 219.779C365.067 219.779 365.064 219.779 365.061 219.779C365.058 219.779 365.055 219.779 365.051 219.779C365.048 219.779 365.045 219.779 365.042 219.779C365.039 219.779 365.035 219.779 365.032 219.779C365.029 219.779 365.026 219.779 365.022 219.779C365.019 219.779 365.016 219.779 365.013 219.779C365.009 219.779 365.006 219.779 365.003 219.779C364.999 219.779 364.996 219.779 364.993 219.779C364.989 219.779 364.986 219.779 364.982 219.779C364.979 219.779 364.976 219.779 364.972 219.779C364.969 219.779 364.965 219.779 364.962 219.779C364.958 219.779 364.955 219.779 364.951 219.779C364.948 219.779 364.945 219.779 364.941 219.779C364.937 219.779 364.934 219.779 364.93 219.779C364.927 219.779 364.923 219.779 364.92 219.779C364.916 219.779 364.912 219.779 364.909 219.779C364.905 219.779 364.902 219.779 364.898 219.779C364.894 219.779 364.891 219.779 364.887 219.779C364.883 219.779 364.88 219.779 364.876 219.779C364.872 219.779 364.868 219.779 364.865 219.779C364.861 219.779 364.857 219.779 364.853 219.779C364.85 219.779 364.846 219.779 364.842 219.779C364.838 219.779 364.834 219.779 364.831 219.779C364.827 219.779 364.823 219.779 364.819 219.779C364.815 219.779 364.811 219.779 364.807 219.779C364.803 219.779 364.8 219.779 364.796 219.779C364.792 219.779 364.788 219.779 364.784 219.779C364.78 219.779 364.776 219.779 364.772 219.779C364.768 219.779 364.764 219.779 364.76 219.779C364.756 219.779 364.752 219.779 364.748 219.779C364.744 219.779 364.739 219.779 364.735 219.779C364.731 219.779 364.727 219.779 364.723 219.779C364.719 219.779 364.715 219.779 364.711 219.779C364.706 219.779 364.702 219.779 364.698 219.779C364.694 219.779 364.69 219.779 364.686 219.779C364.681 219.779 364.677 219.779 364.673 219.779C364.669 219.779 364.664 219.779 364.66 219.779C364.656 219.779 364.651 219.779 364.647 219.779C364.643 219.779 364.638 219.779 364.634 219.779C364.63 219.779 364.625 219.779 364.621 219.779C364.617 219.779 364.612 219.779 364.608 219.779C364.603 219.779 364.599 219.779 364.595 219.779C364.59 219.779 364.586 219.779 364.581 219.779C364.577 219.779 364.572 219.779 364.568 219.779C364.563 219.779 364.559 219.779 364.554 219.779C364.55 219.779 364.545 219.779 364.541 219.779C364.536 219.779 364.531 219.779 364.527 219.779C364.522 219.779 364.518 219.779 364.513 219.779C364.508 219.779 364.504 219.779 364.499 219.779C364.494 219.779 364.49 219.779 364.485 219.779C364.48 219.779 364.476 219.779 364.471 219.779C364.466 219.779 364.461 219.779 364.457 219.779C364.452 219.779 364.447 219.779 364.442 219.779C364.437 219.779 364.433 219.779 364.428 219.779C364.423 219.779 364.418 219.779 364.413 219.779C364.408 219.779 364.404 219.779 364.399 219.779C364.394 219.779 364.389 219.779 364.384 219.779C364.379 219.779 364.374 219.779 364.369 219.779C364.364 219.779 364.359 219.779 364.354 219.779C364.349 219.779 364.344 219.779 364.339 219.779C364.334 219.779 364.329 219.779 364.324 219.779C364.319 219.779 364.314 219.779 364.309 219.779C364.304 219.779 364.299 219.779 364.294 219.779C364.289 219.779 364.284 219.779 364.278 219.779C364.273 219.779 364.268 219.779 364.263 219.779C364.258 219.779 364.253 219.779 364.247 219.779C364.242 219.779 364.237 219.779 364.232 219.779C364.226 219.779 364.221 219.779 364.216 219.779C364.211 219.779 364.205 219.779 364.2 219.779C364.195 219.779 364.189 219.779 364.184 219.779C364.179 219.779 364.173 219.779 364.168 219.779C364.163 219.779 364.157 219.779 364.152 219.779C364.147 219.779 364.141 219.779 364.136 219.779C364.13 219.779 364.125 219.779 364.119 219.779C364.114 219.779 364.108 219.779 364.103 219.779C364.098 219.779 364.092 219.779 364.086 219.779C364.081 219.779 364.075 219.779 364.07 219.779C364.064 219.779 364.059 219.779 364.053 219.779C364.048 219.779 364.042 219.779 364.036 219.779C364.031 219.779 364.025 219.779 364.019 219.779C364.014 219.779 364.008 219.779 364.002 219.779C363.997 219.779 363.991 219.779 363.985 219.779C363.98 219.779 363.974 219.779 363.968 219.779C363.962 219.779 363.957 219.779 363.951 219.779C363.945 219.779 363.939 219.779 363.934 219.779C363.928 219.779 363.922 219.779 363.916 219.779C363.91 219.779 363.904 219.779 363.899 219.779C363.893 219.779 363.887 219.779 363.881 219.779C363.875 219.779 363.869 219.779 363.863 219.779C363.857 219.779 363.851 219.779 363.845 219.779C363.839 219.779 363.833 219.779 363.827 219.779C363.821 219.779 363.815 219.779 363.809 219.779C363.803 219.779 363.797 219.779 363.791 219.779C363.785 219.779 363.779 219.779 363.773 219.779C363.767 219.779 363.761 219.779 363.755 219.779C363.749 219.779 363.742 219.779 363.736 219.779C363.73 219.779 363.724 219.779 363.718 219.779C363.712 219.779 363.705 219.779 363.699 219.779C363.693 219.779 363.687 219.779 363.68 219.779C363.674 219.779 363.668 219.779 363.662 219.779C363.655 219.779 363.649 219.779 363.643 219.779C363.636 219.779 363.63 219.779 363.624 219.779C363.617 219.779 363.611 219.779 363.605 219.779C363.598 219.779 363.592 219.779 363.585 219.779C363.579 219.779 363.573 219.779 363.566 219.779C363.56 219.779 363.553 219.779 363.547 219.779C363.54 219.779 363.534 219.779 363.527 219.779C363.521 219.779 363.514 219.779 363.508 219.779C363.501 219.779 363.495 219.779 363.488 219.779C363.482 219.779 363.475 219.779 363.468 219.779C363.462 219.779 363.455 219.779 363.449 219.779C363.442 219.779 363.435 219.779 363.429 219.779C363.422 219.779 363.415 219.779 363.409 219.779C363.402 219.779 363.395 219.779 363.388 219.779C363.382 219.779 363.375 219.779 363.368 219.779C363.361 219.779 363.355 219.779 363.348 219.779C363.341 219.779 363.334 219.779 363.327 219.779C363.321 219.779 363.314 219.779 363.307 219.779C363.3 219.779 363.293 219.779 363.286 219.779C363.279 219.779 363.273 219.779 363.266 219.779C363.259 219.779 363.252 219.779 363.245 219.779C363.238 219.779 363.231 219.779 363.224 219.779C363.217 219.779 363.21 219.779 363.203 219.779C363.196 219.779 363.189 219.779 363.182 219.779C363.175 219.779 363.168 219.779 363.161 219.779C363.154 219.779 363.147 219.779 363.139 219.779C363.132 219.779 363.125 219.779 363.118 219.779C363.111 219.779 363.104 219.779 363.097 219.779C363.089 219.779 363.082 219.779 363.075 219.779C363.068 219.779 363.061 219.779 363.053 219.779C363.046 219.779 363.039 219.779 363.032 219.779C363.024 219.779 363.017 219.779 363.01 219.779C363.003 219.779 362.995 219.779 362.988 219.779C362.981 219.779 362.973 219.779 362.966 219.779C362.958 219.779 362.951 219.779 362.944 219.779C362.936 219.779 362.929 219.779 362.921 219.779C362.914 219.779 362.907 219.779 362.899 219.779C362.892 219.779 362.884 219.779 362.877 219.779C362.869 219.779 362.862 219.779 362.854 219.779C362.847 219.779 362.839 219.779 362.832 219.779C362.824 219.779 362.817 219.779 362.809 219.779C362.801 219.779 362.794 219.779 362.786 219.779C362.779 219.779 362.771 219.779 362.763 219.779C362.756 219.779 362.748 219.779 362.74 219.779C362.733 219.779 362.725 219.779 362.717 219.779C362.709 219.779 362.702 219.779 362.694 219.779C362.686 219.779 362.678 219.779 362.671 219.779C362.663 219.779 362.655 219.779 362.647 219.779C362.64 219.779 362.632 219.779 362.624 219.779C362.616 219.779 362.608 219.779 362.6 219.779C362.592 219.779 362.585 219.779 362.577 219.779C362.569 219.779 362.561 219.779 362.553 219.779C362.545 219.779 362.537 219.779 362.529 219.779C362.521 219.779 362.513 219.779 362.505 219.779C362.497 219.779 362.489 219.779 362.481 219.779C362.473 219.779 362.465 219.779 362.457 219.779C362.449 219.779 362.441 219.779 362.433 219.779C362.425 219.779 362.417 219.779 362.408 219.779C362.4 219.779 362.392 219.779 362.384 219.779C362.376 219.779 362.368 219.779 362.36 219.779C362.351 219.779 362.343 219.779 362.335 219.779C362.327 219.779 362.318 219.779 362.31 219.779C362.302 219.779 362.294 219.779 362.285 219.779C362.277 219.779 362.269 219.779 362.261 219.779C362.252 219.779 362.244 219.779 362.236 219.779C362.227 219.779 362.219 219.779 362.21 219.779C362.202 219.779 362.194 219.779 362.185 219.779C362.177 219.779 362.168 219.779 362.16 219.779C362.152 219.779 362.143 219.779 362.135 219.779C362.126 219.779 362.118 219.779 362.109 219.779C362.101 219.779 362.092 219.779 362.084 219.779C362.075 219.779 362.067 219.779 362.058 219.779C362.049 219.779 362.041 219.779 362.032 219.779C362.024 219.779 362.015 219.779 362.006 219.779C361.998 219.779 361.989 219.779 361.98 219.779C361.972 219.779 361.963 219.779 361.954 219.779C361.946 219.779 361.937 219.779 361.928 219.779C361.92 219.779 361.911 219.779 361.902 219.779C361.893 219.779 361.885 219.779 361.876 219.779C361.867 219.779 361.858 219.779 361.849 219.779C361.841 219.779 361.832 219.779 361.823 219.779C361.814 219.779 361.805 219.779 361.796 219.779C361.787 219.779 361.778 219.779 361.77 219.779C361.761 219.779 361.752 219.779 361.743 219.779C361.734 219.779 361.725 219.779 361.716 219.779C361.707 219.779 361.698 219.779 361.689 219.779C361.68 219.779 361.671 219.779 361.662 219.779C361.653 219.779 361.644 219.779 361.635 219.779C361.626 219.779 361.616 219.779 361.607 219.779C361.598 219.779 361.589 219.779 361.58 219.779C361.571 219.779 361.562 219.779 361.553 219.779C361.543 219.779 361.534 219.779 361.525 219.779C361.516 219.779 361.507 219.779 361.497 219.779C361.488 219.779 361.479 219.779 361.47 219.779C361.46 219.779 361.451 219.779 361.442 219.779C361.432 219.779 361.423 219.779 361.414 219.779C361.404 219.779 361.395 219.779 361.386 219.779C361.376 219.779 361.367 219.779 361.358 219.779C361.348 219.779 361.339 219.779 361.329 219.779C361.32 219.779 361.311 219.779 361.301 219.779C361.292 219.779 361.282 219.779 361.273 219.779C361.263 219.779 361.254 219.779 361.244 219.779C361.235 219.779 361.225 219.779 361.216 219.779C361.206 219.779 361.196 219.779 361.187 219.779C361.177 219.779 361.168 219.779 361.158 219.779C361.148 219.779 361.139 219.779 361.129 219.779C361.12 219.779 361.11 219.779 361.1 219.779C361.091 219.779 361.081 219.779 361.071 219.779C361.061 219.779 361.052 219.779 361.042 219.779C361.032 219.779 361.022 219.779 361.013 219.779C361.003 219.779 360.993 219.779 360.983 219.779C360.974 219.779 360.964 219.779 360.954 219.779C360.944 219.779 360.934 219.779 360.924 219.779C360.914 219.779 360.905 219.779 360.895 219.779C360.885 219.779 360.875 219.779 360.865 219.779C360.855 219.779 360.845 219.779 360.835 219.779C360.825 219.779 360.815 219.779 360.805 219.779C360.795 219.779 360.785 219.779 360.775 219.779C360.765 219.779 360.755 219.779 360.745 219.779C360.735 219.779 360.725 219.779 360.715 219.779C360.705 219.779 360.695 219.779 360.684 219.779C360.674 219.779 360.664 219.779 360.654 219.779C360.644 219.779 360.634 219.779 360.624 219.779C360.613 219.779 360.603 219.779 360.593 219.779C360.583 219.779 360.573 219.779 360.562 219.779C360.552 219.779 360.542 219.779 360.531 219.779C360.521 219.779 360.511 219.779 360.501 219.779C360.49 219.779 360.48 219.779 360.47 219.779C360.459 219.779 360.449 219.779 360.439 219.779C360.428 219.779 360.418 219.779 360.407 219.779C360.397 219.779 360.387 219.779 360.376 219.779C360.366 219.779 360.355 219.779 360.345 219.779C360.334 219.779 360.324 219.779 360.313 219.779C360.303 219.779 360.292 219.779 360.282 219.779C360.271 219.779 360.261 219.779 360.25 219.779C360.24 219.779 360.229 219.779 360.218 219.779C360.208 219.779 360.197 219.779 360.186 219.779C360.176 219.779 360.165 219.779 360.155 219.779C360.144 219.779 360.133 219.779 360.123 219.779C360.112 219.779 360.101 219.779 360.09 219.779C360.08 219.779 360.069 219.779 360.058 219.779C360.047 219.779 360.037 219.779 360.026 219.779C360.015 219.779 360.004 219.779 359.993 219.779C359.983 219.779 359.972 219.779 359.961 219.779C359.95 219.779 359.939 219.779 359.928 219.779C359.917 219.779 359.907 219.779 359.896 219.779C359.885 219.779 359.874 219.779 359.863 219.779C359.852 219.779 359.841 219.779 359.83 219.779C359.819 219.779 359.808 219.779 359.797 219.779C359.786 219.779 359.775 219.779 359.764 219.779C359.753 219.779 359.742 219.779 359.731 219.779C359.72 219.779 359.709 219.779 359.697 219.779C359.686 219.779 359.675 219.779 359.664 219.779C359.653 219.779 359.642 219.779 359.631 219.779C359.62 219.779 359.608 219.779 359.597 219.779C359.586 219.779 359.575 219.779 359.563 219.779C359.552 219.779 359.541 219.779 359.53 219.779C359.518 219.779 359.507 219.779 359.496 219.779C359.485 219.779 359.473 219.779 359.462 219.779C359.451 219.779 359.439 219.779 359.428 219.779C359.417 219.779 359.405 219.779 359.394 219.779C359.382 219.779 359.371 219.779 359.36 219.779C359.348 219.779 359.337 219.779 359.325 219.779C359.314 219.779 359.302 219.779 359.291 219.779C359.279 219.779 359.268 219.779 359.256 219.779C359.245 219.779 359.233 219.779 359.222 219.779C359.21 219.779 359.199 219.779 359.187 219.779C359.176 219.779 359.164 219.779 359.152 219.779C359.141 219.779 359.129 219.779 359.117 219.779C359.106 219.779 359.094 219.779 359.082 219.779C359.071 219.779 359.059 219.779 359.047 219.779C359.036 219.779 359.024 219.779 359.012 219.779C359 219.779 358.989 219.779 358.977 219.779C358.965 219.779 358.953 219.779 358.942 219.779C358.93 219.779 358.918 219.779 358.906 219.779C358.894 219.779 358.882 219.779 358.871 219.779C358.859 219.779 358.847 219.779 358.835 219.779C358.823 219.779 358.811 219.779 358.799 219.779C358.787 219.779 358.775 219.779 358.763 219.779C358.751 219.779 358.739 219.779 358.727 219.779C358.715 219.779 358.703 219.779 358.691 219.779C358.679 219.779 358.667 219.779 358.655 219.779C358.643 219.779 358.631 219.779 358.619 219.779C358.607 219.779 358.595 219.779 358.583 219.779C358.571 219.779 358.558 219.779 358.546 219.779C358.534 219.779 358.522 219.779 358.51 219.779C358.498 219.779 358.485 219.779 358.473 219.779C358.461 219.779 358.449 219.779 358.437 219.779C358.424 219.779 358.412 219.779 358.4 219.779C358.387 219.779 358.375 219.779 358.363 219.779C358.351 219.779 358.338 219.779 358.326 219.779C358.314 219.779 358.301 219.779 358.289 219.779C358.276 219.779 358.264 219.779 358.252 219.779C358.239 219.779 358.227 219.779 358.214 219.779C358.202 219.779 358.189 219.779 358.177 219.779C358.165 219.779 358.152 219.779 358.14 219.779C358.127 219.779 358.115 219.779 358.102 219.779C358.089 219.779 358.077 219.779 358.064 219.779C358.052 219.779 358.039 219.779 358.027 219.779C358.014 219.779 358.001 219.779 357.989 219.779C357.976 219.779 357.964 219.779 357.951 219.779C357.938 219.779 357.926 219.779 357.913 219.779C357.9 219.779 357.887 219.779 357.875 219.779C357.862 219.779 357.849 219.779 357.837 219.779C357.824 219.779 357.811 219.779 357.798 219.779C357.785 219.779 357.773 219.779 357.76 219.779C357.747 219.779 357.734 219.779 357.721 219.779C357.708 219.779 357.696 219.779 357.683 219.779C357.67 219.779 357.657 219.779 357.644 219.779C357.631 219.779 357.618 219.779 357.605 219.779C357.592 219.779 357.579 219.779 357.566 219.779C357.553 219.779 357.54 219.779 357.527 219.779C357.514 219.779 357.501 219.779 357.488 219.779C357.475 219.779 357.462 219.779 357.449 219.779C357.436 219.779 357.423 219.779 357.41 219.779C357.397 219.779 357.384 219.779 357.371 219.779C357.357 219.779 357.344 219.779 357.331 219.779C357.318 219.779 357.305 219.779 357.292 219.779C357.278 219.779 357.265 219.779 357.252 219.779C357.239 219.779 357.225 219.779 357.212 219.779C357.199 219.779 357.186 219.779 357.172 219.779C357.159 219.779 357.146 219.779 357.132 219.779C357.119 219.779 357.106 219.779 357.092 219.779C357.079 219.779 357.066 219.779 357.052 219.779C357.039 219.779 357.025 219.779 357.012 219.779C356.999 219.779 356.985 219.779 356.972 219.779C356.958 219.779 356.945 219.779 356.931 219.779C356.918 219.779 356.904 219.779 356.891 219.779C356.877 219.779 356.864 219.779 356.85 219.779C356.837 219.779 356.823 219.779 356.81 219.779C356.796 219.779 356.782 219.779 356.769 219.779C356.755 219.779 356.741 219.779 356.728 219.779C356.714 219.779 356.701 219.779 356.687 219.779C356.673 219.779 356.66 219.779 356.646 219.779C356.632 219.779 356.618 219.779 356.605 219.779C356.591 219.779 356.577 219.779 356.563 219.779C356.55 219.779 356.536 219.779 356.522 219.779C356.508 219.779 356.494 219.779 356.481 219.779C356.467 219.779 356.453 219.779 356.439 219.779C356.425 219.779 356.411 219.779 356.397 219.779C356.383 219.779 356.37 219.779 356.356 219.779C356.342 219.779 356.328 219.779 356.314 219.779C356.3 219.779 356.286 219.779 356.272 219.779C356.258 219.779 356.244 219.779 356.23 219.779C356.216 219.779 356.202 219.779 356.188 219.779C356.174 219.779 356.16 219.779 356.146 219.779C356.131 219.779 356.117 219.779 356.103 219.779C356.089 219.779 356.075 219.779 356.061 219.779C356.047 219.779 356.032 219.779 356.018 219.779C356.004 219.779 355.99 219.779 355.976 219.779C355.962 219.779 355.947 219.779 355.933 219.779C355.919 219.779 355.905 219.779 355.89 219.779C355.876 219.779 355.862 219.779 355.847 219.779C355.833 219.779 355.819 219.779 355.804 219.779C355.79 219.779 355.776 219.779 355.761 219.779C355.747 219.779 355.733 219.779 355.718 219.779C355.704 219.779 355.689 219.779 355.675 219.779C355.66 219.779 355.646 219.779 355.632 219.779C355.617 219.779 355.603 219.779 355.588 219.779C355.574 219.779 355.559 219.779 355.545 219.779C355.53 219.779 355.515 219.779 355.501 219.779C355.486 219.779 355.472 219.779 355.457 219.779C355.443 219.779 355.428 219.779 355.413 219.779C355.399 219.779 355.384 219.779 355.369 219.779C355.355 219.779 355.34 219.779 355.325 219.779C355.311 219.779 355.296 219.779 355.281 219.779C355.267 219.779 355.252 219.779 355.237 219.779C355.222 219.779 355.208 219.779 355.193 219.779C355.178 219.779 355.163 219.779 355.148 219.779C355.134 219.779 355.119 219.779 355.104 219.779C355.089 219.779 355.074 219.779 355.059 219.779C355.044 219.779 355.029 219.779 355.015 219.779C355 219.779 354.985 219.779 354.97 219.779C354.955 219.779 354.94 219.779 354.925 219.779C354.91 219.779 354.895 219.779 354.88 219.779C354.865 219.779 354.85 219.779 354.835 219.779C354.82 219.779 354.805 219.779 354.79 219.779C354.775 219.779 354.76 219.779 354.744 219.779C354.729 219.779 354.714 219.779 354.699 219.779C354.684 219.779 354.669 219.779 354.654 219.779C354.638 219.779 354.623 219.779 354.608 219.779C354.593 219.779 354.578 219.779 354.562 219.779C354.547 219.779 354.532 219.779 354.517 219.779C354.501 219.779 354.486 219.779 354.471 219.779C354.456 219.779 354.44 219.779 354.425 219.779C354.41 219.779 354.394 219.779 354.379 219.779C354.364 219.779 354.348 219.779 354.333 219.779C354.317 219.779 354.302 219.779 354.287 219.779C354.271 219.779 354.256 219.779 354.24 219.779C354.225 219.779 354.209 219.779 354.194 219.779C354.178 219.779 354.163 219.779 354.147 219.779C354.132 219.779 354.116 219.779 354.101 219.779C354.085 219.779 354.07 219.779 354.054 219.779C354.039 219.779 354.023 219.779 354.007 219.779C353.992 219.779 353.976 219.779 353.961 219.779C353.945 219.779 353.929 219.779 353.914 219.779C353.898 219.779 353.882 219.779 353.866 219.779C353.851 219.779 353.835 219.779 353.819 219.779C353.804 219.779 353.788 219.779 353.772 219.779C353.756 219.779 353.74 219.779 353.725 219.779C353.709 219.779 353.693 219.779 353.677 219.779C353.661 219.779 353.646 219.779 353.63 219.779C353.614 219.779 353.598 219.779 353.582 219.779C353.566 219.779 353.55 219.779 353.534 219.779C353.518 219.779 353.502 219.779 353.486 219.779C353.471 219.779 353.455 219.779 353.439 219.779C353.423 219.779 353.407 219.779 353.391 219.779C353.375 219.779 353.358 219.779 353.342 219.779C353.326 219.779 353.31 219.779 353.294 219.779C353.278 219.779 353.262 219.779 353.246 219.779C353.23 219.779 353.214 219.779 353.198 219.779C353.181 219.779 353.165 219.779 353.149 219.779C353.133 219.779 353.117 219.779 353.1 219.779C353.084 219.779 353.068 219.779 353.052 219.779V231.779C353.068 231.779 353.084 231.779 353.1 231.779C353.117 231.779 353.133 231.779 353.149 231.779C353.165 231.779 353.181 231.779 353.198 231.779C353.214 231.779 353.23 231.779 353.246 231.779C353.262 231.779 353.278 231.779 353.294 231.779C353.31 231.779 353.326 231.779 353.342 231.779C353.358 231.779 353.375 231.779 353.391 231.779C353.407 231.779 353.423 231.779 353.439 231.779C353.455 231.779 353.471 231.779 353.486 231.779C353.502 231.779 353.518 231.779 353.534 231.779C353.55 231.779 353.566 231.779 353.582 231.779C353.598 231.779 353.614 231.779 353.63 231.779C353.646 231.779 353.661 231.779 353.677 231.779C353.693 231.779 353.709 231.779 353.725 231.779C353.74 231.779 353.756 231.779 353.772 231.779C353.788 231.779 353.804 231.779 353.819 231.779C353.835 231.779 353.851 231.779 353.866 231.779C353.882 231.779 353.898 231.779 353.914 231.779C353.929 231.779 353.945 231.779 353.961 231.779C353.976 231.779 353.992 231.779 354.007 231.779C354.023 231.779 354.039 231.779 354.054 231.779C354.07 231.779 354.085 231.779 354.101 231.779C354.116 231.779 354.132 231.779 354.147 231.779C354.163 231.779 354.178 231.779 354.194 231.779C354.209 231.779 354.225 231.779 354.24 231.779C354.256 231.779 354.271 231.779 354.287 231.779C354.302 231.779 354.317 231.779 354.333 231.779C354.348 231.779 354.364 231.779 354.379 231.779C354.394 231.779 354.41 231.779 354.425 231.779C354.44 231.779 354.456 231.779 354.471 231.779C354.486 231.779 354.501 231.779 354.517 231.779C354.532 231.779 354.547 231.779 354.562 231.779C354.578 231.779 354.593 231.779 354.608 231.779C354.623 231.779 354.638 231.779 354.654 231.779C354.669 231.779 354.684 231.779 354.699 231.779C354.714 231.779 354.729 231.779 354.744 231.779C354.76 231.779 354.775 231.779 354.79 231.779C354.805 231.779 354.82 231.779 354.835 231.779C354.85 231.779 354.865 231.779 354.88 231.779C354.895 231.779 354.91 231.779 354.925 231.779C354.94 231.779 354.955 231.779 354.97 231.779C354.985 231.779 355 231.779 355.015 231.779C355.029 231.779 355.044 231.779 355.059 231.779C355.074 231.779 355.089 231.779 355.104 231.779C355.119 231.779 355.134 231.779 355.148 231.779C355.163 231.779 355.178 231.779 355.193 231.779C355.208 231.779 355.222 231.779 355.237 231.779C355.252 231.779 355.267 231.779 355.281 231.779C355.296 231.779 355.311 231.779 355.325 231.779C355.34 231.779 355.355 231.779 355.369 231.779C355.384 231.779 355.399 231.779 355.413 231.779C355.428 231.779 355.443 231.779 355.457 231.779C355.472 231.779 355.486 231.779 355.501 231.779C355.515 231.779 355.53 231.779 355.545 231.779C355.559 231.779 355.574 231.779 355.588 231.779C355.603 231.779 355.617 231.779 355.632 231.779C355.646 231.779 355.66 231.779 355.675 231.779C355.689 231.779 355.704 231.779 355.718 231.779C355.733 231.779 355.747 231.779 355.761 231.779C355.776 231.779 355.79 231.779 355.804 231.779C355.819 231.779 355.833 231.779 355.847 231.779C355.862 231.779 355.876 231.779 355.89 231.779C355.905 231.779 355.919 231.779 355.933 231.779C355.947 231.779 355.962 231.779 355.976 231.779C355.99 231.779 356.004 231.779 356.018 231.779C356.032 231.779 356.047 231.779 356.061 231.779C356.075 231.779 356.089 231.779 356.103 231.779C356.117 231.779 356.131 231.779 356.146 231.779C356.16 231.779 356.174 231.779 356.188 231.779C356.202 231.779 356.216 231.779 356.23 231.779C356.244 231.779 356.258 231.779 356.272 231.779C356.286 231.779 356.3 231.779 356.314 231.779C356.328 231.779 356.342 231.779 356.356 231.779C356.37 231.779 356.383 231.779 356.397 231.779C356.411 231.779 356.425 231.779 356.439 231.779C356.453 231.779 356.467 231.779 356.481 231.779C356.494 231.779 356.508 231.779 356.522 231.779C356.536 231.779 356.55 231.779 356.563 231.779C356.577 231.779 356.591 231.779 356.605 231.779C356.618 231.779 356.632 231.779 356.646 231.779C356.66 231.779 356.673 231.779 356.687 231.779C356.701 231.779 356.714 231.779 356.728 231.779C356.741 231.779 356.755 231.779 356.769 231.779C356.782 231.779 356.796 231.779 356.81 231.779C356.823 231.779 356.837 231.779 356.85 231.779C356.864 231.779 356.877 231.779 356.891 231.779C356.904 231.779 356.918 231.779 356.931 231.779C356.945 231.779 356.958 231.779 356.972 231.779C356.985 231.779 356.999 231.779 357.012 231.779C357.025 231.779 357.039 231.779 357.052 231.779C357.066 231.779 357.079 231.779 357.092 231.779C357.106 231.779 357.119 231.779 357.132 231.779C357.146 231.779 357.159 231.779 357.172 231.779C357.186 231.779 357.199 231.779 357.212 231.779C357.225 231.779 357.239 231.779 357.252 231.779C357.265 231.779 357.278 231.779 357.292 231.779C357.305 231.779 357.318 231.779 357.331 231.779C357.344 231.779 357.357 231.779 357.371 231.779C357.384 231.779 357.397 231.779 357.41 231.779C357.423 231.779 357.436 231.779 357.449 231.779C357.462 231.779 357.475 231.779 357.488 231.779C357.501 231.779 357.514 231.779 357.527 231.779C357.54 231.779 357.553 231.779 357.566 231.779C357.579 231.779 357.592 231.779 357.605 231.779C357.618 231.779 357.631 231.779 357.644 231.779C357.657 231.779 357.67 231.779 357.683 231.779C357.696 231.779 357.708 231.779 357.721 231.779C357.734 231.779 357.747 231.779 357.76 231.779C357.773 231.779 357.785 231.779 357.798 231.779C357.811 231.779 357.824 231.779 357.837 231.779C357.849 231.779 357.862 231.779 357.875 231.779C357.887 231.779 357.9 231.779 357.913 231.779C357.926 231.779 357.938 231.779 357.951 231.779C357.964 231.779 357.976 231.779 357.989 231.779C358.001 231.779 358.014 231.779 358.027 231.779C358.039 231.779 358.052 231.779 358.064 231.779C358.077 231.779 358.089 231.779 358.102 231.779C358.115 231.779 358.127 231.779 358.14 231.779C358.152 231.779 358.165 231.779 358.177 231.779C358.189 231.779 358.202 231.779 358.214 231.779C358.227 231.779 358.239 231.779 358.252 231.779C358.264 231.779 358.276 231.779 358.289 231.779C358.301 231.779 358.314 231.779 358.326 231.779C358.338 231.779 358.351 231.779 358.363 231.779C358.375 231.779 358.387 231.779 358.4 231.779C358.412 231.779 358.424 231.779 358.437 231.779C358.449 231.779 358.461 231.779 358.473 231.779C358.485 231.779 358.498 231.779 358.51 231.779C358.522 231.779 358.534 231.779 358.546 231.779C358.558 231.779 358.571 231.779 358.583 231.779C358.595 231.779 358.607 231.779 358.619 231.779C358.631 231.779 358.643 231.779 358.655 231.779C358.667 231.779 358.679 231.779 358.691 231.779C358.703 231.779 358.715 231.779 358.727 231.779C358.739 231.779 358.751 231.779 358.763 231.779C358.775 231.779 358.787 231.779 358.799 231.779C358.811 231.779 358.823 231.779 358.835 231.779C358.847 231.779 358.859 231.779 358.871 231.779C358.882 231.779 358.894 231.779 358.906 231.779C358.918 231.779 358.93 231.779 358.942 231.779C358.953 231.779 358.965 231.779 358.977 231.779C358.989 231.779 359 231.779 359.012 231.779C359.024 231.779 359.036 231.779 359.047 231.779C359.059 231.779 359.071 231.779 359.082 231.779C359.094 231.779 359.106 231.779 359.117 231.779C359.129 231.779 359.141 231.779 359.152 231.779C359.164 231.779 359.176 231.779 359.187 231.779C359.199 231.779 359.21 231.779 359.222 231.779C359.233 231.779 359.245 231.779 359.256 231.779C359.268 231.779 359.279 231.779 359.291 231.779C359.302 231.779 359.314 231.779 359.325 231.779C359.337 231.779 359.348 231.779 359.36 231.779C359.371 231.779 359.382 231.779 359.394 231.779C359.405 231.779 359.417 231.779 359.428 231.779C359.439 231.779 359.451 231.779 359.462 231.779C359.473 231.779 359.485 231.779 359.496 231.779C359.507 231.779 359.518 231.779 359.53 231.779C359.541 231.779 359.552 231.779 359.563 231.779C359.575 231.779 359.586 231.779 359.597 231.779C359.608 231.779 359.62 231.779 359.631 231.779C359.642 231.779 359.653 231.779 359.664 231.779C359.675 231.779 359.686 231.779 359.697 231.779C359.709 231.779 359.72 231.779 359.731 231.779C359.742 231.779 359.753 231.779 359.764 231.779C359.775 231.779 359.786 231.779 359.797 231.779C359.808 231.779 359.819 231.779 359.83 231.779C359.841 231.779 359.852 231.779 359.863 231.779C359.874 231.779 359.885 231.779 359.896 231.779C359.907 231.779 359.917 231.779 359.928 231.779C359.939 231.779 359.95 231.779 359.961 231.779C359.972 231.779 359.983 231.779 359.993 231.779C360.004 231.779 360.015 231.779 360.026 231.779C360.037 231.779 360.047 231.779 360.058 231.779C360.069 231.779 360.08 231.779 360.09 231.779C360.101 231.779 360.112 231.779 360.123 231.779C360.133 231.779 360.144 231.779 360.155 231.779C360.165 231.779 360.176 231.779 360.186 231.779C360.197 231.779 360.208 231.779 360.218 231.779C360.229 231.779 360.24 231.779 360.25 231.779C360.261 231.779 360.271 231.779 360.282 231.779C360.292 231.779 360.303 231.779 360.313 231.779C360.324 231.779 360.334 231.779 360.345 231.779C360.355 231.779 360.366 231.779 360.376 231.779C360.387 231.779 360.397 231.779 360.407 231.779C360.418 231.779 360.428 231.779 360.439 231.779C360.449 231.779 360.459 231.779 360.47 231.779C360.48 231.779 360.49 231.779 360.501 231.779C360.511 231.779 360.521 231.779 360.531 231.779C360.542 231.779 360.552 231.779 360.562 231.779C360.573 231.779 360.583 231.779 360.593 231.779C360.603 231.779 360.613 231.779 360.624 231.779C360.634 231.779 360.644 231.779 360.654 231.779C360.664 231.779 360.674 231.779 360.684 231.779C360.695 231.779 360.705 231.779 360.715 231.779C360.725 231.779 360.735 231.779 360.745 231.779C360.755 231.779 360.765 231.779 360.775 231.779C360.785 231.779 360.795 231.779 360.805 231.779C360.815 231.779 360.825 231.779 360.835 231.779C360.845 231.779 360.855 231.779 360.865 231.779C360.875 231.779 360.885 231.779 360.895 231.779C360.905 231.779 360.914 231.779 360.924 231.779C360.934 231.779 360.944 231.779 360.954 231.779C360.964 231.779 360.974 231.779 360.983 231.779C360.993 231.779 361.003 231.779 361.013 231.779C361.022 231.779 361.032 231.779 361.042 231.779C361.052 231.779 361.061 231.779 361.071 231.779C361.081 231.779 361.091 231.779 361.1 231.779C361.11 231.779 361.12 231.779 361.129 231.779C361.139 231.779 361.148 231.779 361.158 231.779C361.168 231.779 361.177 231.779 361.187 231.779C361.196 231.779 361.206 231.779 361.216 231.779C361.225 231.779 361.235 231.779 361.244 231.779C361.254 231.779 361.263 231.779 361.273 231.779C361.282 231.779 361.292 231.779 361.301 231.779C361.311 231.779 361.32 231.779 361.329 231.779C361.339 231.779 361.348 231.779 361.358 231.779C361.367 231.779 361.376 231.779 361.386 231.779C361.395 231.779 361.404 231.779 361.414 231.779C361.423 231.779 361.432 231.779 361.442 231.779C361.451 231.779 361.46 231.779 361.47 231.779C361.479 231.779 361.488 231.779 361.497 231.779C361.507 231.779 361.516 231.779 361.525 231.779C361.534 231.779 361.543 231.779 361.553 231.779C361.562 231.779 361.571 231.779 361.58 231.779C361.589 231.779 361.598 231.779 361.607 231.779C361.616 231.779 361.626 231.779 361.635 231.779C361.644 231.779 361.653 231.779 361.662 231.779C361.671 231.779 361.68 231.779 361.689 231.779C361.698 231.779 361.707 231.779 361.716 231.779C361.725 231.779 361.734 231.779 361.743 231.779C361.752 231.779 361.761 231.779 361.77 231.779C361.778 231.779 361.787 231.779 361.796 231.779C361.805 231.779 361.814 231.779 361.823 231.779C361.832 231.779 361.841 231.779 361.849 231.779C361.858 231.779 361.867 231.779 361.876 231.779C361.885 231.779 361.893 231.779 361.902 231.779C361.911 231.779 361.92 231.779 361.928 231.779C361.937 231.779 361.946 231.779 361.954 231.779C361.963 231.779 361.972 231.779 361.98 231.779C361.989 231.779 361.998 231.779 362.006 231.779C362.015 231.779 362.024 231.779 362.032 231.779C362.041 231.779 362.049 231.779 362.058 231.779C362.067 231.779 362.075 231.779 362.084 231.779C362.092 231.779 362.101 231.779 362.109 231.779C362.118 231.779 362.126 231.779 362.135 231.779C362.143 231.779 362.152 231.779 362.16 231.779C362.168 231.779 362.177 231.779 362.185 231.779C362.194 231.779 362.202 231.779 362.21 231.779C362.219 231.779 362.227 231.779 362.236 231.779C362.244 231.779 362.252 231.779 362.261 231.779C362.269 231.779 362.277 231.779 362.285 231.779C362.294 231.779 362.302 231.779 362.31 231.779C362.318 231.779 362.327 231.779 362.335 231.779C362.343 231.779 362.351 231.779 362.36 231.779C362.368 231.779 362.376 231.779 362.384 231.779C362.392 231.779 362.4 231.779 362.408 231.779C362.417 231.779 362.425 231.779 362.433 231.779C362.441 231.779 362.449 231.779 362.457 231.779C362.465 231.779 362.473 231.779 362.481 231.779C362.489 231.779 362.497 231.779 362.505 231.779C362.513 231.779 362.521 231.779 362.529 231.779C362.537 231.779 362.545 231.779 362.553 231.779C362.561 231.779 362.569 231.779 362.577 231.779C362.585 231.779 362.592 231.779 362.6 231.779C362.608 231.779 362.616 231.779 362.624 231.779C362.632 231.779 362.64 231.779 362.647 231.779C362.655 231.779 362.663 231.779 362.671 231.779C362.678 231.779 362.686 231.779 362.694 231.779C362.702 231.779 362.709 231.779 362.717 231.779C362.725 231.779 362.733 231.779 362.74 231.779C362.748 231.779 362.756 231.779 362.763 231.779C362.771 231.779 362.779 231.779 362.786 231.779C362.794 231.779 362.801 231.779 362.809 231.779C362.817 231.779 362.824 231.779 362.832 231.779C362.839 231.779 362.847 231.779 362.854 231.779C362.862 231.779 362.869 231.779 362.877 231.779C362.884 231.779 362.892 231.779 362.899 231.779C362.907 231.779 362.914 231.779 362.921 231.779C362.929 231.779 362.936 231.779 362.944 231.779C362.951 231.779 362.958 231.779 362.966 231.779C362.973 231.779 362.981 231.779 362.988 231.779C362.995 231.779 363.003 231.779 363.01 231.779C363.017 231.779 363.024 231.779 363.032 231.779C363.039 231.779 363.046 231.779 363.053 231.779C363.061 231.779 363.068 231.779 363.075 231.779C363.082 231.779 363.089 231.779 363.097 231.779C363.104 231.779 363.111 231.779 363.118 231.779C363.125 231.779 363.132 231.779 363.139 231.779C363.147 231.779 363.154 231.779 363.161 231.779C363.168 231.779 363.175 231.779 363.182 231.779C363.189 231.779 363.196 231.779 363.203 231.779C363.21 231.779 363.217 231.779 363.224 231.779C363.231 231.779 363.238 231.779 363.245 231.779C363.252 231.779 363.259 231.779 363.266 231.779C363.273 231.779 363.279 231.779 363.286 231.779C363.293 231.779 363.3 231.779 363.307 231.779C363.314 231.779 363.321 231.779 363.327 231.779C363.334 231.779 363.341 231.779 363.348 231.779C363.355 231.779 363.361 231.779 363.368 231.779C363.375 231.779 363.382 231.779 363.388 231.779C363.395 231.779 363.402 231.779 363.409 231.779C363.415 231.779 363.422 231.779 363.429 231.779C363.435 231.779 363.442 231.779 363.449 231.779C363.455 231.779 363.462 231.779 363.468 231.779C363.475 231.779 363.482 231.779 363.488 231.779C363.495 231.779 363.501 231.779 363.508 231.779C363.514 231.779 363.521 231.779 363.527 231.779C363.534 231.779 363.54 231.779 363.547 231.779C363.553 231.779 363.56 231.779 363.566 231.779C363.573 231.779 363.579 231.779 363.585 231.779C363.592 231.779 363.598 231.779 363.605 231.779C363.611 231.779 363.617 231.779 363.624 231.779C363.63 231.779 363.636 231.779 363.643 231.779C363.649 231.779 363.655 231.779 363.662 231.779C363.668 231.779 363.674 231.779 363.68 231.779C363.687 231.779 363.693 231.779 363.699 231.779C363.705 231.779 363.712 231.779 363.718 231.779C363.724 231.779 363.73 231.779 363.736 231.779C363.742 231.779 363.749 231.779 363.755 231.779C363.761 231.779 363.767 231.779 363.773 231.779C363.779 231.779 363.785 231.779 363.791 231.779C363.797 231.779 363.803 231.779 363.809 231.779C363.815 231.779 363.821 231.779 363.827 231.779C363.833 231.779 363.839 231.779 363.845 231.779C363.851 231.779 363.857 231.779 363.863 231.779C363.869 231.779 363.875 231.779 363.881 231.779C363.887 231.779 363.893 231.779 363.899 231.779C363.904 231.779 363.91 231.779 363.916 231.779C363.922 231.779 363.928 231.779 363.934 231.779C363.939 231.779 363.945 231.779 363.951 231.779C363.957 231.779 363.962 231.779 363.968 231.779C363.974 231.779 363.98 231.779 363.985 231.779C363.991 231.779 363.997 231.779 364.002 231.779C364.008 231.779 364.014 231.779 364.019 231.779C364.025 231.779 364.031 231.779 364.036 231.779C364.042 231.779 364.048 231.779 364.053 231.779C364.059 231.779 364.064 231.779 364.07 231.779C364.075 231.779 364.081 231.779 364.086 231.779C364.092 231.779 364.098 231.779 364.103 231.779C364.108 231.779 364.114 231.779 364.119 231.779C364.125 231.779 364.13 231.779 364.136 231.779C364.141 231.779 364.147 231.779 364.152 231.779C364.157 231.779 364.163 231.779 364.168 231.779C364.173 231.779 364.179 231.779 364.184 231.779C364.189 231.779 364.195 231.779 364.2 231.779C364.205 231.779 364.211 231.779 364.216 231.779C364.221 231.779 364.226 231.779 364.232 231.779C364.237 231.779 364.242 231.779 364.247 231.779C364.253 231.779 364.258 231.779 364.263 231.779C364.268 231.779 364.273 231.779 364.278 231.779C364.284 231.779 364.289 231.779 364.294 231.779C364.299 231.779 364.304 231.779 364.309 231.779C364.314 231.779 364.319 231.779 364.324 231.779C364.329 231.779 364.334 231.779 364.339 231.779C364.344 231.779 364.349 231.779 364.354 231.779C364.359 231.779 364.364 231.779 364.369 231.779C364.374 231.779 364.379 231.779 364.384 231.779C364.389 231.779 364.394 231.779 364.399 231.779C364.404 231.779 364.408 231.779 364.413 231.779C364.418 231.779 364.423 231.779 364.428 231.779C364.433 231.779 364.437 231.779 364.442 231.779C364.447 231.779 364.452 231.779 364.457 231.779C364.461 231.779 364.466 231.779 364.471 231.779C364.476 231.779 364.48 231.779 364.485 231.779C364.49 231.779 364.494 231.779 364.499 231.779C364.504 231.779 364.508 231.779 364.513 231.779C364.518 231.779 364.522 231.779 364.527 231.779C364.531 231.779 364.536 231.779 364.541 231.779C364.545 231.779 364.55 231.779 364.554 231.779C364.559 231.779 364.563 231.779 364.568 231.779C364.572 231.779 364.577 231.779 364.581 231.779C364.586 231.779 364.59 231.779 364.595 231.779C364.599 231.779 364.603 231.779 364.608 231.779C364.612 231.779 364.617 231.779 364.621 231.779C364.625 231.779 364.63 231.779 364.634 231.779C364.638 231.779 364.643 231.779 364.647 231.779C364.651 231.779 364.656 231.779 364.66 231.779C364.664 231.779 364.669 231.779 364.673 231.779C364.677 231.779 364.681 231.779 364.686 231.779C364.69 231.779 364.694 231.779 364.698 231.779C364.702 231.779 364.706 231.779 364.711 231.779C364.715 231.779 364.719 231.779 364.723 231.779C364.727 231.779 364.731 231.779 364.735 231.779C364.739 231.779 364.744 231.779 364.748 231.779C364.752 231.779 364.756 231.779 364.76 231.779C364.764 231.779 364.768 231.779 364.772 231.779C364.776 231.779 364.78 231.779 364.784 231.779C364.788 231.779 364.792 231.779 364.796 231.779C364.8 231.779 364.803 231.779 364.807 231.779C364.811 231.779 364.815 231.779 364.819 231.779C364.823 231.779 364.827 231.779 364.831 231.779C364.834 231.779 364.838 231.779 364.842 231.779C364.846 231.779 364.85 231.779 364.853 231.779C364.857 231.779 364.861 231.779 364.865 231.779C364.868 231.779 364.872 231.779 364.876 231.779C364.88 231.779 364.883 231.779 364.887 231.779C364.891 231.779 364.894 231.779 364.898 231.779C364.902 231.779 364.905 231.779 364.909 231.779C364.912 231.779 364.916 231.779 364.92 231.779C364.923 231.779 364.927 231.779 364.93 231.779C364.934 231.779 364.937 231.779 364.941 231.779C364.945 231.779 364.948 231.779 364.951 231.779C364.955 231.779 364.958 231.779 364.962 231.779C364.965 231.779 364.969 231.779 364.972 231.779C364.976 231.779 364.979 231.779 364.982 231.779C364.986 231.779 364.989 231.779 364.993 231.779C364.996 231.779 364.999 231.779 365.003 231.779C365.006 231.779 365.009 231.779 365.013 231.779C365.016 231.779 365.019 231.779 365.022 231.779C365.026 231.779 365.029 231.779 365.032 231.779C365.035 231.779 365.039 231.779 365.042 231.779C365.045 231.779 365.048 231.779 365.051 231.779C365.055 231.779 365.058 231.779 365.061 231.779C365.064 231.779 365.067 231.779 365.07 231.779C365.073 231.779 365.076 231.779 365.08 231.779C365.083 231.779 365.086 231.779 365.089 231.779C365.092 231.779 365.095 231.779 365.098 231.779C365.101 231.779 365.104 231.779 365.107 231.779C365.11 231.779 365.113 231.779 365.116 231.779C365.119 231.779 365.122 231.779 365.125 231.779C365.127 231.779 365.13 231.779 365.133 231.779C365.136 231.779 365.139 231.779 365.142 231.779C365.145 231.779 365.148 231.779 365.15 231.779C365.153 231.779 365.156 231.779 365.159 231.779C365.162 231.779 365.164 231.779 365.167 231.779C365.17 231.779 365.173 231.779 365.175 231.779C365.178 231.779 365.181 231.779 365.184 231.779C365.186 231.779 365.189 231.779 365.192 231.779C365.194 231.779 365.197 231.779 365.199 231.779C365.202 231.779 365.205 231.779 365.207 231.779C365.21 231.779 365.213 231.779 365.215 231.779C365.218 231.779 365.22 231.779 365.223 231.779C365.225 231.779 365.228 231.779 365.23 231.779C365.233 231.779 365.235 231.779 365.238 231.779C365.24 231.779 365.243 231.779 365.245 231.779C365.248 231.779 365.25 231.779 365.252 231.779C365.255 231.779 365.257 231.779 365.26 231.779C365.262 231.779 365.264 231.779 365.267 231.779C365.269 231.779 365.271 231.779 365.274 231.779C365.276 231.779 365.278 231.779 365.281 231.779C365.283 231.779 365.285 231.779 365.287 231.779C365.29 231.779 365.292 231.779 365.294 231.779C365.296 231.779 365.299 231.779 365.301 231.779C365.303 231.779 365.305 231.779 365.307 231.779C365.309 231.779 365.312 231.779 365.314 231.779C365.316 231.779 365.318 231.779 365.32 231.779C365.322 231.779 365.324 231.779 365.326 231.779C365.328 231.779 365.33 231.779 365.332 231.779C365.334 231.779 365.336 231.779 365.338 231.779C365.34 231.779 365.342 231.779 365.344 231.779C365.346 231.779 365.348 231.779 365.35 231.779C365.352 231.779 365.354 231.779 365.356 231.779C365.358 231.779 365.36 231.779 365.362 231.779C365.364 231.779 365.365 231.779 365.367 231.779C365.369 231.779 365.371 231.779 365.373 231.779C365.375 231.779 365.376 231.779 365.378 231.779C365.38 231.779 365.382 231.779 365.383 231.779C365.385 231.779 365.387 231.779 365.389 231.779C365.39 231.779 365.392 231.779 365.394 231.779C365.395 231.779 365.397 231.779 365.399 231.779C365.4 231.779 365.402 231.779 365.404 231.779C365.405 231.779 365.407 231.779 365.408 231.779C365.41 231.779 365.412 231.779 365.413 231.779C365.415 231.779 365.416 231.779 365.418 231.779C365.419 231.779 365.421 231.779 365.422 231.779C365.424 231.779 365.425 231.779 365.427 231.779C365.428 231.779 365.43 231.779 365.431 231.779C365.432 231.779 365.434 231.779 365.435 231.779C365.437 231.779 365.438 231.779 365.439 231.779C365.441 231.779 365.442 231.779 365.443 231.779C365.445 231.779 365.446 231.779 365.447 231.779C365.449 231.779 365.45 231.779 365.451 231.779C365.452 231.779 365.454 231.779 365.455 231.779C365.456 231.779 365.457 231.779 365.459 231.779C365.46 231.779 365.461 231.779 365.462 231.779C365.463 231.779 365.465 231.779 365.466 231.779C365.467 231.779 365.468 231.779 365.469 231.779C365.47 231.779 365.471 231.779 365.472 231.779C365.473 231.779 365.474 231.779 365.476 231.779C365.477 231.779 365.478 231.779 365.479 231.779C365.48 231.779 365.481 231.779 365.482 231.779C365.483 231.779 365.484 231.779 365.485 231.779C365.485 231.779 365.486 231.779 365.487 231.779C365.488 231.779 365.489 231.779 365.49 231.779C365.491 231.779 365.492 231.779 365.493 231.779C365.494 231.779 365.494 231.779 365.495 231.779C365.496 231.779 365.497 231.779 365.498 231.779C365.498 231.779 365.499 231.779 365.5 231.779C365.501 231.779 365.501 231.779 365.502 231.779C365.503 231.779 365.504 231.779 365.504 231.779C365.505 231.779 365.506 231.779 365.506 231.779C365.507 231.779 365.508 231.779 365.508 231.779C365.509 231.779 365.51 231.779 365.51 231.779C365.511 231.779 365.511 231.779 365.512 231.779C365.512 231.779 365.513 231.779 365.514 231.779C365.514 231.779 365.515 231.779 365.515 231.779C365.516 231.779 365.516 231.779 365.517 231.779C365.517 231.779 365.518 231.779 365.518 231.779C365.518 231.779 365.519 231.779 365.519 231.779C365.52 231.779 365.52 231.779 365.52 231.779C365.521 231.779 365.521 231.779 365.522 231.779C365.522 231.779 365.522 231.779 365.523 231.779C365.523 231.779 365.523 231.779 365.523 231.779C365.524 231.779 365.524 231.779 365.524 231.779C365.525 231.779 365.525 231.779 365.525 231.779C365.525 231.779 365.525 231.779 365.526 231.779C365.526 231.779 365.526 231.779 365.526 231.779C365.526 231.779 365.526 231.779 365.527 231.779C365.527 231.779 365.527 231.779 365.527 231.779C365.527 231.779 365.527 231.779 365.527 231.779C365.527 231.779 365.527 231.779 365.527 231.779C365.527 231.779 365.527 231.779 365.527 225.779Z" fill="white" mask="url(#path-4-outside-1_111_4)"/>
</g>
<defs>
<clipPath id="clip0_111_4">
<rect width="500" height="500" fill="white"/>
</clipPath>
</defs>
</svg>
